HIERARCHY
ROOT root
{
	OFFSET	0	13.1	24.9
	CHANNELS 6  Xposition Yposition Zposition Xrotation Yrotation Zrotation
	JOINT spine_1
	{
		OFFSET	0	9.99999	0
		CHANNELS 3  Xrotation Yrotation Zrotation
		JOINT spine_2
		{
			OFFSET	0	112	-10
			CHANNELS 3  Xrotation Yrotation Zrotation
			JOINT spine_3
			{
				OFFSET	0	206.5	19.3
				CHANNELS 3  Xrotation Yrotation Zrotation
				JOINT spine_4
				{
					OFFSET	0	110.4	14.6
					CHANNELS 3  Xrotation Yrotation Zrotation
					JOINT neck_1
					{
						OFFSET	0	71.8	-50.3
						CHANNELS 3  Xrotation Yrotation Zrotation
						JOINT neck_2
						{
							OFFSET	0	86.2	-25.8
							CHANNELS 3  Xrotation Yrotation Zrotation
							JOINT head_ee
							{
								OFFSET	0	179.8	-8.7
								CHANNELS 3  Xrotation Yrotation Zrotation
								End Site
								{
									OFFSET	1	0	0
								}
							}
						}
					}
					JOINT left_clavicle
					{
						OFFSET	-43.2	22.4	-70.8
						CHANNELS 3  Xrotation Yrotation Zrotation
						JOINT left_shoulder
						{
							OFFSET	-93.9	-5.79999	48.7
							CHANNELS 3  Xrotation Yrotation Zrotation
							JOINT left_elbow
							{
								OFFSET	-291.4	-30.8	15.2
								CHANNELS 3  Xrotation Yrotation Zrotation
								JOINT left_lowarm_twist
								{
									OFFSET	-110.7	-3.89999	13.6
									CHANNELS 3  Xrotation Yrotation Zrotation
									JOINT left_hand
									{
										OFFSET	-110.7	-3.89999	13.6
										CHANNELS 3  Xrotation Yrotation Zrotation
										JOINT left_ee
										{
											OFFSET	-80.8	-5.10001	12.1
											CHANNELS 3  Xrotation Yrotation Zrotation
											End Site
											{
												OFFSET	1	0	0
											}
										}
									}
								}
							}
						}
					}
					JOINT right_clavicle
					{
						OFFSET	43.2	22.4	-70.8
						CHANNELS 3  Xrotation Yrotation Zrotation
						JOINT right_shoulder
						{
							OFFSET	93.9	-5.79999	48.7
							CHANNELS 3  Xrotation Yrotation Zrotation
							JOINT right_elbow
							{
								OFFSET	291.4	-30.8	15.2
								CHANNELS 3  Xrotation Yrotation Zrotation
								JOINT right_lowarm_twist
								{
									OFFSET	110.7	-3.89999	13.6
									CHANNELS 3  Xrotation Yrotation Zrotation
									JOINT right_hand
									{
										OFFSET	110.7	-3.89999	13.6
										CHANNELS 3  Xrotation Yrotation Zrotation
										JOINT right_ee
										{
											OFFSET	80.8	-5.10001	12.1
											CHANNELS 3  Xrotation Yrotation Zrotation
											End Site
											{
												OFFSET	1	0	0
											}
										}
									}
								}
							}
						}
					}
				}
			}
		}
	}
	JOINT left_hip
	{
		OFFSET	-82.8	-127.5	0.300001
		CHANNELS 3  Xrotation Yrotation Zrotation
		JOINT left_knee
		{
			OFFSET	-28.2	-396.7	2.2
			CHANNELS 3  Xrotation Yrotation Zrotation
			JOINT left_ankle
			{
				OFFSET	-11.7	-411.3	35.4
				CHANNELS 3  Xrotation Yrotation Zrotation
				JOINT left_toes
				{
					OFFSET	0	-60	-88.6
					CHANNELS 3  Xrotation Yrotation Zrotation
					JOINT left_foot_ee
					{
						OFFSET	-22.5	-16.5	-42.2
						CHANNELS 3  Xrotation Yrotation Zrotation
						End Site
						{
							OFFSET	1	0	0
						}
					}
				}
			}
		}
	}
	JOINT right_hip
	{
		OFFSET	82.8	-127.5	0.300001
		CHANNELS 3  Xrotation Yrotation Zrotation
		JOINT right_knee
		{
			OFFSET	28.2	-396.7	2.2
			CHANNELS 3  Xrotation Yrotation Zrotation
			JOINT right_ankle
			{
				OFFSET	11.7	-411.3	35.4
				CHANNELS 3  Xrotation Yrotation Zrotation
				JOINT right_toes
				{
					OFFSET	0	-60	-88.6
					CHANNELS 3  Xrotation Yrotation Zrotation
					JOINT right_foot_ee
					{
						OFFSET	22.5	-16.5	-42.2
						CHANNELS 3  Xrotation Yrotation Zrotation
						End Site
						{
							OFFSET	1	0	0
						}
					}
				}
			}
		}
	}
}
MOTION
Frames: 16
Frame Time: 0.02
3408.56 690.956 -1613.13 -3.95692 61.6487 -3.39571 1.01801 0.65766 4.11298 1.02733 0.394839 4.14641 1.05825 -0.409336 4.14501 1.03437 0.249844 4.15765 -12.1498 19.7992 -1.32181 -13.1557 38.4321 4.90775 -0.0 0.0 -0.0 -6.40411 24.4711 -5.82179 -13.8766 -14.2628 64.2823 2.24231 -47.9976 0.998387 -10.9213 -0.510229 1.29765 -1.1367 22.4214 2.35502 -0.0 0.0 -0.0 12.2418 25.2717 -24.0149 -1.12629 28.8056 -75.8607 0.583809 16.1301 -0.0827258 24.6258 -0.200966 3.11519 0.00107359 6.29757 2.66435 0.0 0.0 0.0 15.2856 24.249 -8.25872 -55.3445 -1.7188 7.99294 38.1661 2.9616 -4.699 0.358232 -0.0 -0.0 -0.0 0.0 -0.0 4.7833 24.9203 1.39878 -29.2581 -0.0717662 -4.44096 41.3276 -3.54041 4.97193 16.2878 -0.0 -0.0 0.0 0.0 0.0 
3401.29 693.582 -1616.68 -6.47714 61.8069 -0.829295 1.42685 0.745533 4.08538 1.436 0.484286 4.12445 1.47224 -0.287117 4.14281 1.44849 0.370191 4.13623 -11.4045 19.6269 -2.04606 -12.2562 38.4952 3.8516 -0.0 0.0 -0.0 -6.20076 24.0996 -5.65282 -15.8112 -14.8144 64.3819 2.03723 -45.2567 0.849274 -9.65601 -0.438535 1.15253 -0.846915 23.2266 4.37192 -0.0 0.0 -0.0 12.6646 25.5782 -24.9521 0.790584 28.6659 -75.6126 0.589952 16.2909 -0.0844408 24.556 -0.202298 3.10637 -0.0528538 6.49397 3.11244 0.0 0.0 0.0 16.0495 22.0729 -7.70274 -55.9265 -1.77654 8.06159 38.2923 2.36575 -4.7125 0.584325 -0.0 -0.0 -0.0 0.0 -0.0 5.0011 25.815 0.754078 -27.5691 -0.129472 -4.18817 41.9291 -3.56361 5.02165 13.9679 -0.0 -0.0 0.0 0.0 0.0 
3397.61 694.075 -1619.4 -8.38206 61.7797 1.13269 1.5435 1.08824 4.02285 1.55212 0.830274 4.08381 1.61277 0.0715776 4.1666 1.58929 0.728155 4.10321 -12.9396 19.7389 -1.16918 -14.0937 38.2907 5.35742 -0.0 0.0 -0.0 -6.13688 23.2835 -5.80566 -18.1142 -14.5924 65.1422 1.73529 -40.6791 0.643307 -9.27351 -0.417496 1.10836 -0.738406 24.2828 5.42905 -0.0 0.0 -0.0 12.9965 25.6746 -25.7069 2.79093 28.378 -74.8789 0.58187 16.0793 -0.082188 25.0737 -0.192166 3.17173 -0.0564378 6.73244 3.23844 0.0 0.0 0.0 17.0405 22.4123 -7.91904 -53.0664 -1.49958 7.71872 36.9903 1.8539 -4.59602 -0.504663 0.0 0.0 -0.0 0.0 -0.0 5.59496 25.6097 -0.0531464 -26.2425 -0.16955 -3.98853 42.018 -7.41604 5.03351 11.3118 -0.0 -0.0 0.0 0.0 0.0 
3392.04 698.472 -1624.43 -10.3798 63.1933 3.24057 1.67431 1.08816 4.11948 1.68337 0.824057 4.18022 1.74463 0.0576747 4.26014 1.72006 0.729161 4.19779 -13.7204 19.3466 -2.51016 -15.0235 38.405 4.28295 -0.0 0.0 -0.0 -5.68869 21.6954 -5.61836 -20.3847 -15.4953 65.0583 1.55813 -37.6602 0.531373 -6.47864 -0.272812 0.781535 -0.519055 25.9855 7.34993 -0.0 0.0 -0.0 13.5616 26.074 -26.9706 4.27 28.0793 -74.4074 0.561034 15.5318 -0.0765127 24.5386 -0.202628 3.10418 -0.339644 4.88846 4.36381 0.0 0.0 0.0 19.5283 26.0054 -10.0253 -49.0675 -1.14193 7.21742 33.4596 0.032364 -4.26754 -0.706291 0.0 0.0 -0.0 0.0 -0.0 5.7194 23.734 -0.631439 -25.3612 -0.193615 -3.85542 42.2703 -10.1947 5.07189 7.10112 -0.0 -0.0 0.0 0.0 0.0 
3389.77 699.527 -1629.23 -12.2603 64.0403 5.42611 1.7847 1.10149 4.13857 1.79384 0.836152 4.20012 1.85599 0.074357 4.28175 1.83119 0.749039 4.2165 -13.3368 19.5251 -2.62552 -14.5925 38.7949 4.0885 -0.0 0.0 -0.0 -5.71727 20.5438 -5.98081 -20.5814 -15.202 65.5057 1.38048 -34.3644 0.426879 -5.98258 -0.24881 0.722818 -0.536092 26.4486 7.43478 -0.0 0.0 -0.0 13.684 26.1469 -27.2467 5.41127 27.9306 -75.1507 0.587904 16.2373 -0.0838671 24.9088 -0.195458 3.15092 -0.415531 5.92808 5.32372 0.0 0.0 0.0 21.1059 27.7322 -11.22 -40.5228 -0.500359 6.0713 28.4064 -3.4106 -3.76911 -0.265479 0.0 0.0 -0.0 0.0 -0.0 5.04418 24.1246 -0.702241 -22.9932 -0.248096 -3.49614 42.3492 -7.42082 5.0608 4.67625 -0.0 -0.0 0.0 0.0 0.0 
3382.98 705.454 -1630.79 -11.078 64.4542 3.6548 1.83034 1.12728 4.3526 1.84047 0.848309 4.41534 1.9066 0.0519564 4.49564 1.87922 0.7606 4.43126 -15.3718 19.3359 -1.91886 -16.9872 38.1105 5.51673 -0.0 0.0 -0.0 -5.43068 19.1921 -5.91596 -21.0805 -14.9189 66.8299 1.14063 -29.467 0.299961 -3.74677 -0.146989 0.455722 0.0201733 27.9751 11.0988 -0.0 0.0 -0.0 14.5936 25.9994 -29.3996 6.36982 27.4405 -74.3139 0.562597 15.573 -0.0769317 24.3788 -0.20563 3.08398 -0.444646 7.49239 6.19331 0.0 0.0 0.0 25.4281 31.7878 -14.4437 -34.8355 -0.171307 5.26194 20.9705 -5.96871 -2.92501 0.533435 -0.0 -0.0 -0.0 0.0 -0.0 3.70647 25.7363 -0.165107 -23.9058 -0.228859 -3.63487 42.3542 -12.528 5.10297 2.16256 -0.0 -0.0 0.0 0.0 0.0 
3377.11 712.081 -1632.56 -12.27 65.3116 4.60728 1.96857 1.17956 4.43273 1.97905 0.895399 4.49862 2.04973 0.0951525 4.5857 2.02133 0.817438 4.51341 -18.0181 19.3957 -1.39799 -20.1585 38.0073 7.13373 -0.0 0.0 -0.0 -5.45005 19.3368 -5.90686 -22.0935 -14.4486 67.34 1.007 -26.5113 0.237228 -3.84592 -0.151282 0.467648 0.0237417 28.2865 11.2272 -0.0 0.0 -0.0 14.6933 26.7827 -29.5323 7.2104 27.0845 -74.0611 0.632755 17.4036 -0.0968466 23.9231 -0.21388 3.02636 -0.279226 8.70931 5.59226 0.0 0.0 0.0 28.3974 33.1669 -16.1118 -31.5602 -0.0188468 4.78259 18.7631 -6.78585 -2.65497 -1.8356 0.0 0.0 -0.0 0.0 -0.0 2.75484 24.6434 0.353724 -21.2611 -0.278519 -3.2321 42.3448 -11.158 5.08698 1.72498 -0.0 -0.0 0.0 0.0 0.0 
3368.22 714.415 -1631.29 -12.3398 66.1874 4.59625 2.12309 1.18599 4.40204 2.13341 0.903765 4.4684 2.20379 0.120984 4.5571 2.1758 0.838444 4.48109 -18.4156 19.049 -1.93485 -20.5784 37.6277 6.62705 -0.0 0.0 -0.0 -5.35482 19.8137 -5.63535 -22.8916 -13.9483 67.8552 0.909409 -24.251 0.195388 -3.66733 -0.143563 0.44616 0.0364859 28.5192 11.3785 -0.0 0.0 -0.0 14.6114 26.9411 -29.3178 7.63592 26.83 -73.8697 0.749031 20.3572 -0.134485 23.7923 -0.216163 3.00981 -0.282222 10.1101 6.21185 0.0 0.0 0.0 29.2422 34.3809 -16.4106 -30.2597 0.0340322 4.59003 14.6581 -7.87298 -2.12414 -2.82911 0.0 0.0 -0.0 0.0 -0.0 1.28706 24.9435 0.815636 -20.7883 -0.285435 -3.15989 41.6946 -13.2341 5.05615 2.23274 -0.0 -0.0 0.0 0.0 0.0 
3353.1 714.596 -1627.22 -10.8542 65.7694 3.19309 2.12021 1.19558 4.42011 2.13062 0.912186 4.48704 2.20197 0.125949 4.57691 2.17374 0.846466 4.49988 -18.1784 18.2919 -3.63316 -20.1921 37.0721 4.5847 -0.0 0.0 -0.0 -5.31557 20.8437 -5.30307 -24.0837 -13.1525 68.7027 0.786451 -21.2851 0.147787 -3.34196 -0.129673 0.406952 0.185578 29.1287 12.4086 -0.0 0.0 -0.0 14.3678 27.113 -28.7217 8.32485 26.5789 -73.5827 0.915473 24.3939 -0.197885 23.2524 -0.225189 2.94143 -0.174937 11.4367 6.05062 0.0 0.0 0.0 30.4607 35.386 -16.5717 -26.5499 0.160676 4.03487 11.3825 -8.57965 -1.67798 -3.79179 0.0 0.0 -0.0 0.0 -0.0 -1.31131 25.5558 1.78511 -20.1059 -0.294365 -3.05556 41.2039 -13.0555 5.01173 3.66908 -0.0 -0.0 0.0 0.0 0.0 
3343.72 714.383 -1627.25 -11.8283 66.8045 4.52367 2.21522 1.2111 4.40875 2.22555 0.928396 4.4767 2.29772 0.151404 4.56925 2.26965 0.870399 4.48831 -17.7969 17.6239 -4.63257 -19.6185 36.3377 3.16847 -0.0 0.0 -0.0 -5.22345 21.0783 -5.10529 -25.14 -12.8327 68.7579 0.701248 -19.1561 0.118333 -3.56449 -0.139149 0.433776 0.087619 29.0628 11.8471 -0.0 0.0 -0.0 14.1218 27.4342 -28.1022 8.88587 26.1206 -73.2494 1.12014 29.0243 -0.28995 22.6686 -0.234221 2.86741 0.00670356 14.1282 5.96919 0.0 0.0 0.0 32.7448 35.3394 -17.1196 -21.6679 0.272091 3.2942 5.92908 -12.0625 -0.909817 -5.4561 0.0 0.0 -0.0 0.0 -0.0 -2.5175 24.407 2.41091 -19.1145 -0.305124 -2.90383 40.3156 -13.8663 4.9446 5.73153 -0.0 -0.0 0.0 0.0 0.0 
3336.77 714.033 -1627.88 -12.9476 67.4354 6.20422 2.25995 1.27771 4.42589 2.2703 0.993788 4.49802 2.34787 0.21645 4.6012 2.31957 0.939662 4.50961 -17.8044 17.0879 -5.41889 -19.5283 35.7338 2.17208 -0.0 0.0 -0.0 -5.45398 21.3348 -5.37477 -26.2857 -12.5025 68.9114 0.686149 -18.7729 0.113426 -3.3913 -0.131765 0.412904 0.159057 29.1526 12.2706 -0.0 0.0 -0.0 13.8426 27.7719 -27.4053 9.25567 25.6013 -72.8168 1.36208 34.0071 -0.416539 21.8394 -0.245754 2.76211 0.0567473 15.4169 6.1809 0.0 0.0 0.0 33.153 35.7801 -16.7491 -16.8552 0.319823 2.55751 4.45362 -14.8249 -0.699992 -6.33772 0.0 0.0 -0.0 0.0 -0.0 -2.6046 22.89 1.66306 -17.6157 -0.3164 -2.67414 40.6107 -13.7386 4.96892 6.44778 -0.0 -0.0 0.0 0.0 0.0 
3328.07 710.524 -1621.18 -14.7366 68.0753 7.86794 2.42826 1.02298 4.47995 2.43912 0.736138 4.5358 2.4961 -0.0328049 4.59491 2.46732 0.692526 4.54265 -16.5557 15.6442 -6.4495 -17.806 33.6091 0.0623349 -0.0 0.0 -0.0 -5.15462 21.848 -4.80265 -27.5597 -12.0793 69.3022 0.598605 -16.5169 0.0868845 -2.67857 -0.102045 0.326775 0.236438 28.9632 12.6342 -0.0 0.0 -0.0 13.7381 27.8906 -27.1464 10.3302 24.7293 -72.2394 1.5118 36.8272 -0.503335 20.4967 -0.261193 2.59131 0.540676 19.4817 4.68174 0.0 0.0 0.0 34.0063 35.7557 -15.0 -6.2812 0.207186 0.941234 -4.45164 -19.1037 0.742695 -8.74952 0.0 0.0 -0.0 0.0 -0.0 -4.16781 25.7233 3.02565 -14.6789 -0.321062 -2.22363 40.2519 -12.276 4.91955 10.6772 -0.0 -0.0 0.0 0.0 0.0 
3317.02 706.81 -1621.97 -15.1306 67.8097 8.8684 2.65932 1.23413 4.43854 2.66978 0.949489 4.50788 2.7427 0.20276 4.60214 2.71435 0.926291 4.5127 -16.8182 15.598 -7.33998 -18.1082 33.9986 -0.6972 -0.0 0.0 -0.0 -5.58066 22.3475 -5.28133 -28.0022 -11.8 69.5209 0.601519 -16.5929 0.0877146 -2.96018 -0.11366 0.36085 0.10945 29.0256 11.9546 -0.0 0.0 -0.0 13.8236 27.8826 -27.3461 10.9321 24.804 -72.1332 1.61633 38.6806 -0.567339 20.3431 -0.262704 2.57175 0.531636 20.1278 5.0208 0.0 0.0 0.0 35.3176 35.6097 -15.1224 -2.25234 0.0861632 0.334897 -5.17499 -17.7132 0.854082 -10.4067 0.0 0.0 -0.0 0.0 -0.0 -4.26643 22.5734 2.43192 -14.7928 -0.321311 -2.2411 40.5974 -14.8016 4.98287 10.6154 -0.0 -0.0 0.0 0.0 0.0 
3306.39 704.408 -1619.29 -15.8677 67.3486 9.23872 2.82035 1.22647 4.60224 2.83165 0.931464 4.67075 2.90505 0.171902 4.75942 2.87463 0.920578 4.6729 -17.01 15.7664 -7.10012 -18.3592 34.1731 -0.327148 -0.0 0.0 -0.0 -5.48476 22.4459 -5.11693 -29.4663 -11.3225 69.7993 0.597282 -16.4824 0.0865087 -2.67407 -0.101861 0.32623 0.223257 28.9359 12.5523 -0.0 0.0 -0.0 13.9561 27.9682 -27.6423 11.3425 24.9378 -71.7612 1.78011 41.4025 -0.67274 20.2494 -0.263601 2.55981 0.619113 20.7698 4.71862 0.0 0.0 0.0 35.3041 35.4848 -14.7677 1.44525 -0.0622067 -0.213046 -5.14979 -18.6997 0.857305 -11.7337 0.0 0.0 -0.0 0.0 -0.0 -4.6898 23.0929 3.09757 -15.7446 -0.32204 -2.38712 40.9825 -14.6969 5.01517 10.6048 -0.0 -0.0 0.0 0.0 0.0 
3289.94 698.708 -1617.11 -16.5827 67.1253 9.93515 2.90054 1.19076 4.67242 2.91224 0.891368 4.73851 2.983 0.127903 4.81974 2.9517 0.886622 4.7394 -17.041 15.7174 -7.88225 -18.3923 34.5077 -1.06712 -0.0 0.0 -0.0 -5.74247 23.0712 -5.3096 -30.1596 -10.7646 70.5053 0.632252 -17.3906 0.0966962 -2.27237 -0.0855875 0.277528 0.303138 28.1669 12.7412 -0.0 0.0 -0.0 13.6169 27.8923 -26.8652 11.8164 25.0769 -71.4102 1.99661 44.68 -0.820568 19.9615 -0.266231 2.52312 0.787301 21.9134 4.10593 0.0 0.0 0.0 34.4703 35.3577 -13.395 6.41596 -0.316853 -0.932738 -5.31209 -19.051 0.887448 -13.4077 0.0 0.0 -0.0 0.0 -0.0 -4.82891 22.9726 3.81226 -16.9531 -0.319469 -2.57253 41.9224 -13.7519 5.08255 10.5724 -0.0 -0.0 0.0 0.0 0.0 
3278.93 693.465 -1614.66 -17.1898 67.3649 10.8919 2.99208 1.22194 4.66986 3.00373 0.92265 4.73794 3.07679 0.166906 4.82386 3.04552 0.925787 4.73733 -17.5049 16.1115 -7.17762 -19.0025 34.8363 -0.0548814 -0.0 0.0 -0.0 -6.02357 23.191 -5.67268 -31.0431 -10.6711 71.0638 0.664856 -18.2294 0.106669 -2.02332 -0.07567 0.247277 0.310983 27.5503 12.5805 -0.0 0.0 -0.0 13.6409 27.6415 -26.9545 12.4627 25.3224 -71.7862 2.10145 46.1451 -0.895238 19.5204 -0.269903 2.46692 0.874928 21.6311 3.40516 0.0 0.0 0.0 34.7441 34.7871 -13.2745 7.11009 -0.357363 -1.03143 -6.30256 -19.1105 1.05559 -14.5118 0.0 0.0 -0.0 0.0 -0.0 -5.33459 23.3932 4.31786 -17.1321 -0.318756 -2.59997 41.3777 -12.7146 5.02249 10.1994 -0.0 -0.0 0.0 0.0 0.0 
